<svg xmlns="http://www.w3.org/2000/svg" width="41" height="39" viewBox="0 0 41 39">
  <defs>
    <style>
      .cls-1 {
        fill: #f60;
        fill-rule: evenodd;
      }
    </style>
  </defs>
  <path id="bank" class="cls-1" d="M1567.81,413.006h-26.63a1.207,1.207,0,0,1-1.21-1.206V390.208a1.205,1.205,0,1,1,2.41,0v20.385h24.23V390.208a1.205,1.205,0,1,1,2.41,0V411.8A1.207,1.207,0,0,1,1567.81,413.006Zm5.98-22.8a1.2,1.2,0,0,1-.7-0.225l-18.59-13.3-18.6,13.3a1.205,1.205,0,0,1-1.4-1.962l19.29-13.8a1.217,1.217,0,0,1,1.41,0l19.3,13.8a1.2,1.2,0,0,1,.27,1.682A1.189,1.189,0,0,1,1573.79,390.208Zm-14.46,8.358a6.286,6.286,0,0,0-2.35-1.495q-1.425-.526-2.85-1.063-2.01-.817-2.01-2.289a2.434,2.434,0,0,1,.88-1.822,2.631,2.631,0,0,1,1.86-.666,5.861,5.861,0,0,1,2.12.677,4.389,4.389,0,0,0,1.17.444,0.848,0.848,0,0,0,.98-0.934c0-.686-0.54-1.215-1.63-1.589a7.468,7.468,0,0,0-2.48-.42,5.047,5.047,0,0,0-4.36,2.17,3.934,3.934,0,0,0-.74,2.323,3.527,3.527,0,0,0,1.36,2.953,6.288,6.288,0,0,0,1.53.922l2.16,0.77a6.93,6.93,0,0,1,2.09,1.086,2.5,2.5,0,0,1,.95,1.972,3.277,3.277,0,0,1-.93,2.335,2.98,2.98,0,0,1-2.26.98,6.205,6.205,0,0,1-2.9-.718c-0.29-.169-0.5-0.3-0.64-0.393a1.344,1.344,0,0,0-.6-0.186,0.879,0.879,0,0,0-.67.287,1.01,1.01,0,0,0-.26.695c0,0.724.64,1.292,1.94,1.7a9.429,9.429,0,0,0,2.87.455,5.874,5.874,0,0,0,4.05-1.424,4.979,4.979,0,0,0,1.69-3.925,4.15,4.15,0,0,0-.97-2.85h0Zm-4.49-11.9a1.025,1.025,0,0,1,1.02,1.025v20.5a1.025,1.025,0,1,1-2.05,0v-20.5A1.027,1.027,0,0,1,1554.84,386.665Z" transform="translate(-1534 -374)"/>
</svg>
