<svg xmlns="http://www.w3.org/2000/svg" width="41" height="30" viewBox="0 0 41 30">
  <defs>
    <style>
      .cls-1 {
        fill: #f60;
        fill-rule: evenodd;
      }
    </style>
  </defs>
  <path id="card" class="cls-1" d="M1565.38,312h-33.76a3.625,3.625,0,0,1-3.62-3.625V285.615a3.624,3.624,0,0,1,3.62-3.625h33.76a3.624,3.624,0,0,1,3.62,3.625v22.758A3.625,3.625,0,0,1,1565.38,312Zm-33.76-27.591a1.209,1.209,0,0,0-1.21,1.208v22.758a1.209,1.209,0,0,0,1.21,1.208h33.76a1.209,1.209,0,0,0,1.21-1.208V285.615a1.209,1.209,0,0,0-1.21-1.208h-33.76Zm2.88,5.724h28a2.4,2.4,0,1,1,0,4.793h-28A2.4,2.4,0,1,1,1534.5,290.131Z" transform="translate(-1528 -282)"/>
</svg>
