<svg xmlns="http://www.w3.org/2000/svg" width="35.062" height="34.031" viewBox="0 0 35.062 34.031">
  <defs>
    <style>
      .cls-1 {
        fill: #939393;
        fill-rule: evenodd;
      }
    </style>
  </defs>
  <path id="Close" class="cls-1" d="M797.427,47.436a1.571,1.571,0,0,1,2.2,0L831,78.383a1.521,1.521,0,0,1,0,2.172,1.571,1.571,0,0,1-2.2,0l-31.37-30.947A1.521,1.521,0,0,1,797.427,47.436Zm0.55,30.947,31.37-30.947a1.572,1.572,0,0,1,2.2,0,1.523,1.523,0,0,1,0,2.172L800.178,80.555a1.571,1.571,0,0,1-2.2,0A1.521,1.521,0,0,1,797.977,78.383Z" transform="translate(-796.969 -47)"/>
</svg>
