<svg xmlns="http://www.w3.org/2000/svg" width="37" height="36" viewBox="0 0 37 36">
  <defs>
    <style>
      .cls-1 {
        fill: #f60;
        fill-rule: evenodd;
      }
    </style>
  </defs>
  <path id="mopay" class="cls-1" d="M1545,462h14.37a11,11,0,0,1,11,11v14a11,11,0,0,1-11,11H1545a11,11,0,0,1-11-11V473A11,11,0,0,1,1545,462Zm-0.49,2.483h15.35a8,8,0,0,1,8,8v15.034a8,8,0,0,1-8,8h-15.35a8,8,0,0,1-8-8V472.483A8,8,0,0,1,1544.51,464.483Zm21.79,10.551a4.706,4.706,0,0,1,4.7,4.7v0.524a4.705,4.705,0,0,1-9.41,0v-0.524A4.708,4.708,0,0,1,1566.3,475.034Zm0,1.862a2.82,2.82,0,0,1,2.82,2.822v0.563a2.825,2.825,0,0,1-5.65,0v-0.563A2.828,2.828,0,0,1,1566.3,476.9Zm-0.32,1.862a1.242,1.242,0,1,1-1.25,1.242A1.248,1.248,0,0,1,1565.98,478.758Zm-16.13-4.035a3.823,3.823,0,0,1,.62,5.251,3.55,3.55,0,0,1-5.09.617,3.821,3.821,0,0,1-.61-5.251A3.537,3.537,0,0,1,1549.85,474.723Zm-2,.744a2.249,2.249,0,1,1-2.12,2.245A2.187,2.187,0,0,1,1547.85,475.467Zm1.08,3.131,2.57,1.344,0.22-1.12-2.79-1.567V478.6Zm8.69-4.793a3.823,3.823,0,0,1,.62,5.251,3.549,3.549,0,0,1-5.09.618,3.822,3.822,0,0,1-.61-5.251A3.536,3.536,0,0,1,1557.62,473.805Zm-2.25.749a2.025,2.025,0,1,1-1.94,2.023A1.982,1.982,0,0,1,1555.37,474.554Zm-3.65,4.268,2.36-2.015,0.85,0.672-2.57,2.239Zm3.02,2.507a3.821,3.821,0,0,1,.61,5.251,3.537,3.537,0,0,1-5.08.617,3.823,3.823,0,0,1-.62-5.251A3.549,3.549,0,0,1,1554.74,481.329Zm-2.17.626a1.8,1.8,0,1,1-1.71,1.8A1.754,1.754,0,0,1,1552.57,481.955Zm-1.07-1.789,0.22,2.687,1.07-.224-0.22-2.687Z" transform="translate(-1534 -462)"/>
</svg>
