<svg xmlns="http://www.w3.org/2000/svg" width="40" height="39.031" viewBox="0 0 40 39.031">
  <defs>
    <style>
      .cls-1 {
        fill: #939393;
        fill-rule: evenodd;
      }
    </style>
  </defs>
  <path id="reload" class="cls-1" d="M3270.36,72.155a1.619,1.619,0,0,0-1.7,1.578,16.584,16.584,0,0,1-9.04,14.259c-8.16,4.36-17.69.446-21.35-4.862l5.16,1.044a1.639,1.639,0,0,0,1.95-1.243,1.6,1.6,0,0,0-1.27-1.9l-10.14-2.072a1.669,1.669,0,0,0-1.96,1.825l1.28,9.947a1.572,1.572,0,0,0,1.62,1.411,1.591,1.591,0,0,0,1.71-1.825l-0.6-4.854c8.28,9.668,18.79,8.321,25.14,5.523a19.668,19.668,0,0,0,10.82-17.168A1.609,1.609,0,0,0,3270.36,72.155Zm-36.73,2.718a1.619,1.619,0,0,0,1.7-1.578,16.584,16.584,0,0,1,9.04-14.259c8.16-4.36,17.69-.446,21.35,4.862l-5.15-1.044a1.645,1.645,0,0,0-1.96,1.243,1.6,1.6,0,0,0,1.28,1.9l10.14,2.072a1.669,1.669,0,0,0,1.96-1.825l-1.28-9.947a1.572,1.572,0,0,0-1.62-1.411,1.591,1.591,0,0,0-1.71,1.825l0.59,4.854c-8.28-9.66-18.79-8.321-25.13-5.516a19.666,19.666,0,0,0-10.83,17.16A1.61,1.61,0,0,0,3233.63,74.873Zm18.2,1.241a1.614,1.614,0,0,1,.47,2.148,1.427,1.427,0,0,1-2.03.5,1.613,1.613,0,0,1-.47-2.147A1.429,1.429,0,0,1,3251.83,76.114Zm4.08,0.1a0.314,0.314,0,0,0-.02-0.094l-0.02-.093c-0.01-.016-0.01-0.031-0.02-0.048a4.783,4.783,0,0,0-5.72-3.565l-0.3.073-0.4.1a0.986,0.986,0,0,0-.69,1.176,0.929,0.929,0,0,0,1.11.731l0.7-.174a2.964,2.964,0,0,1,3.56,2.34l0.13,0.525a0.9,0.9,0,0,0,1.67.287,0.978,0.978,0,0,0,.11-0.73Zm3.1-.237-0.1-.446V75.523l-0.08-.353a0.553,0.553,0,0,0-.06-0.176,7.988,7.988,0,0,0-9.34-5.823c-0.02,0-.03,0-0.06.007l-0.76.189a0.889,0.889,0,0,0-.62,1.072,0.844,0.844,0,0,0,1.01.667l0.76-.188c0.01,0,.01,0,0.01-0.005a6.332,6.332,0,0,1,7.46,4.834l0.14,0.635a0.837,0.837,0,0,0,1.01.661A0.9,0.9,0,0,0,3259.01,75.974Z" transform="translate(-3232 -54)"/>
</svg>
