<svg xmlns="http://www.w3.org/2000/svg" width="33.06" height="33.061" viewBox="0 0 33.06 33.061">
  <defs>
    <style>
      .cls-1 {
        fill: #c4c4c4;
        fill-rule: evenodd;
      }
    </style>
  </defs>
  <path id="remove" class="cls-1" d="M3306.5,973.983a16.519,16.519,0,1,0,16.52,16.517A16.522,16.522,0,0,0,3306.5,973.983Zm7.1,20.989-2.63,2.627s-4.16-4.464-4.47-4.464-4.47,4.464-4.47,4.464l-2.63-2.627s4.47-4.1,4.47-4.466-4.47-4.473-4.47-4.473l2.63-2.633s4.19,4.467,4.47,4.467,4.47-4.467,4.47-4.467l2.63,2.633s-4.47,4.161-4.47,4.473S3313.6,994.972,3313.6,994.972Z" transform="translate(-3289.97 -973.969)"/>
</svg>
