<svg xmlns="http://www.w3.org/2000/svg" width="13" height="13" viewBox="0 0 13 13">
  <defs>
    <style>
      .cls-1 {
        fill: #8d8d8d;
        fill-rule: evenodd;
      }
    </style>
  </defs>
  <path id="setting" class="cls-1" d="M603.219,82.008l-0.329-.8a14.559,14.559,0,0,0,.7-1.828l-1.012-1.008a13.788,13.788,0,0,0-1.8.734l-0.8-.328a14.41,14.41,0,0,0-.8-1.784h-1.428a13.744,13.744,0,0,0-.75,1.788l-0.794.329a14.578,14.578,0,0,0-1.83-.7l-1.01,1.01a13.782,13.782,0,0,0,.734,1.794l-0.328.8a14.708,14.708,0,0,0-1.786.8v1.428a13.646,13.646,0,0,0,1.79.751l0.329,0.794a14.691,14.691,0,0,0-.7,1.827l1.012,1.011a14.036,14.036,0,0,0,1.794-.735l0.8,0.329a14.4,14.4,0,0,0,.8,1.783h1.428a13.744,13.744,0,0,0,.75-1.788l0.8-.329a14.709,14.709,0,0,0,1.825.7l1.012-1.01a13.586,13.586,0,0,0-.735-1.794l0.328-.8a14.578,14.578,0,0,0,1.786-.8V82.756A13.787,13.787,0,0,0,603.219,82.008ZM600.587,83.5a2.087,2.087,0,1,1-2.087-2.083A2.088,2.088,0,0,1,600.587,83.5Z" transform="translate(-592 -77)"/>
</svg>
