<svg xmlns="http://www.w3.org/2000/svg" width="40" height="30" viewBox="0 0 40 30">
  <defs>
    <style>
      .cls-1 {
        fill: #f60;
        fill-rule: evenodd;
      }
    </style>
  </defs>
  <path id="sms" class="cls-1" d="M1566.82,227.007h-37.64a1.174,1.174,0,0,1-1.18-1.165V202.027a1.169,1.169,0,0,1,.57-1,1.189,1.189,0,0,1,1.16-.028l18.17,9.619,15.36-11.3h-34.08a1.166,1.166,0,1,1,0-2.331h37.63l0.08,0a1.224,1.224,0,0,1,.46.12,1.238,1.238,0,0,1,.38.3,1.3,1.3,0,0,1,.21.381h0a1.216,1.216,0,0,1,.06.376v27.672A1.174,1.174,0,0,1,1566.82,227.007Zm-36.47-2.33h35.3v-24.2L1548.7,212.93a1.193,1.193,0,0,1-1.26.092l-17.09-9.051v20.706Zm29.13-3.3a0.956,0.956,0,0,1-.56-0.184l-6.27-4.612a0.925,0.925,0,0,1-.2-1.3,0.95,0.95,0,0,1,1.32-.193l6.27,4.612a0.925,0.925,0,0,1,.2,1.3A0.955,0.955,0,0,1,1559.48,221.377Zm-22.95,0a0.954,0.954,0,0,1-.76-0.376,0.925,0.925,0,0,1,.2-1.3l6.27-4.612a0.94,0.94,0,0,1,1.31.192,0.923,0.923,0,0,1-.19,1.3l-6.27,4.612A0.949,0.949,0,0,1,1536.53,221.376Z" transform="translate(-1528 -197)"/>
</svg>
